REM DIRINDEX 1\2,1\3,1\4,1\5
REM DIRNAME folder01,folder02,folder03,folder04,folder05
TITLE ""
FILE "1800_081.mp3" MP3
  TRACK 01 AUDIO
    TITLE "2:cjc044_2113"
    INDEX 01 00:00:00
  TRACK 02 AUDIO
    TITLE "0:"
    INDEX 01 00:01:01
  TRACK 03 AUDIO
    TITLE "3:cjc044_2114"
    INDEX 01 00:01:58
  TRACK 04 AUDIO
    TITLE "0:"
    INDEX 01 00:02:55
  TRACK 05 AUDIO
    TITLE "4:cjc044_2115"
    INDEX 01 00:03:43
  TRACK 06 AUDIO
    TITLE "0:"
    INDEX 01 00:04:58
  TRACK 07 AUDIO
    TITLE "5:cjc044_2116"
    INDEX 01 00:05:32
  TRACK 08 AUDIO
    TITLE "0:"
    INDEX 01 00:08:44
  TRACK 09 AUDIO
    TITLE "2:cjc044_2117"
    INDEX 01 00:10:27
  TRACK 10 AUDIO
    TITLE "0:"
    INDEX 01 00:11:44
  TRACK 11 AUDIO
    TITLE "3:cjc044_2118"
    INDEX 01 00:12:26
  TRACK 12 AUDIO
    TITLE "0:"
    INDEX 01 00:13:49
  TRACK 13 AUDIO
    TITLE "4:cjc044_2119"
    INDEX 01 00:14:37
  TRACK 14 AUDIO
    TITLE "0:"
    INDEX 01 00:15:58
  TRACK 15 AUDIO
    TITLE "5:cjc044_2120"
    INDEX 01 00:16:34
  TRACK 16 AUDIO
    TITLE "0:"
    INDEX 01 00:19:16
  TRACK 17 AUDIO
    TITLE "2:cjc044_2121"
    INDEX 01 00:20:73
  TRACK 18 AUDIO
    TITLE "0:"
    INDEX 01 00:22:17
  TRACK 19 AUDIO
    TITLE "3:cjc044_2122"
    INDEX 01 00:23:03
  TRACK 20 AUDIO
    TITLE "0:"
    INDEX 01 00:24:31
  TRACK 21 AUDIO
    TITLE "4:cjc044_2123"
    INDEX 01 00:25:13
  TRACK 22 AUDIO
    TITLE "0:"
    INDEX 01 00:26:32
  TRACK 23 AUDIO
    TITLE "5:cjc044_2124"
    INDEX 01 00:27:20
  TRACK 24 AUDIO
    TITLE "0:"
    INDEX 01 00:31:16
  TRACK 25 AUDIO
    TITLE "2:cjc044_2125"
    INDEX 01 00:33:07
  TRACK 26 AUDIO
    TITLE "0:"
    INDEX 01 00:34:22
  TRACK 27 AUDIO
    TITLE "3:cjc044_2126"
    INDEX 01 00:35:06
  TRACK 28 AUDIO
    TITLE "0:"
    INDEX 01 00:36:23
  TRACK 29 AUDIO
    TITLE "4:cjc044_2127"
    INDEX 01 00:37:07
  TRACK 30 AUDIO
    TITLE "0:"
    INDEX 01 00:38:26
  TRACK 31 AUDIO
    TITLE "5:cjc044_2128"
    INDEX 01 00:38:71
  TRACK 32 AUDIO
    TITLE "0:"
    INDEX 01 00:41:49
  TRACK 33 AUDIO
    TITLE "2:cjc044_2129"
    INDEX 01 00:43:37
  TRACK 34 AUDIO
    TITLE "0:"
    INDEX 01 00:44:67
  TRACK 35 AUDIO
    TITLE "3:cjc044_2130"
    INDEX 01 00:45:53
  TRACK 36 AUDIO
    TITLE "0:"
    INDEX 01 00:46:49
  TRACK 37 AUDIO
    TITLE "4:cjc044_2131"
    INDEX 01 00:47:36
  TRACK 38 AUDIO
    TITLE "0:"
    INDEX 01 00:48:67
  TRACK 39 AUDIO
    TITLE "5:cjc044_2132"
    INDEX 01 00:49:39
  TRACK 40 AUDIO
    TITLE "0:"
    INDEX 01 00:52:67
  TRACK 41 AUDIO
    TITLE "2:cjc044_2133"
    INDEX 01 00:54:54
  TRACK 42 AUDIO
    TITLE "0:"
    INDEX 01 00:56:16
  TRACK 43 AUDIO
    TITLE "3:cjc044_2134"
    INDEX 01 00:57:01
  TRACK 44 AUDIO
    TITLE "0:"
    INDEX 01 00:58:07
  TRACK 45 AUDIO
    TITLE "4:cjc044_2135"
    INDEX 01 00:58:67
  TRACK 46 AUDIO
    TITLE "0:"
    INDEX 01 01:00:29
  TRACK 47 AUDIO
    TITLE "5:cjc044_2136"
    INDEX 01 01:01:01
  TRACK 48 AUDIO
    TITLE "0:"
    INDEX 01 01:04:29
  TRACK 49 AUDIO
    TITLE "2:cjc044_2137"
    INDEX 01 01:06:12
  TRACK 50 AUDIO
    TITLE "0:"
    INDEX 01 01:07:43
  TRACK 51 AUDIO
    TITLE "3:cjc044_2138"
    INDEX 01 01:08:31
  TRACK 52 AUDIO
    TITLE "0:"
    INDEX 01 01:09:59
  TRACK 53 AUDIO
    TITLE "4:cjc044_2139"
    INDEX 01 01:10:43
  TRACK 54 AUDIO
    TITLE "0:"
    INDEX 01 01:11:74
  TRACK 55 AUDIO
    TITLE "5:cjc044_2140"
    INDEX 01 01:12:56
  TRACK 56 AUDIO
    TITLE "0:"
    INDEX 01 01:17:22
  TRACK 57 AUDIO
    TITLE "2:cjc044_2141"
    INDEX 01 01:19:01
  TRACK 58 AUDIO
    TITLE "0:"
    INDEX 01 01:20:22
  TRACK 59 AUDIO
    TITLE "3:cjc044_2142"
    INDEX 01 01:21:04
  TRACK 60 AUDIO
    TITLE "0:"
    INDEX 01 01:21:69
  TRACK 61 AUDIO
    TITLE "4:cjc044_2143"
    INDEX 01 01:22:50
  TRACK 62 AUDIO
    TITLE "0:"
    INDEX 01 01:23:71
  TRACK 63 AUDIO
    TITLE "5:cjc044_2144"
    INDEX 01 01:24:49
  TRACK 64 AUDIO
    TITLE "0:"
    INDEX 01 01:27:10
